<svg width="16" height="12" viewBox="0 0 16 12" fill="none" xmlns="http://www.w3.org/2000/svg">
<path id="Vector" d="M10.9091 0H3.63636L0 6V9H1.45455C1.45455 9.79565 1.68442 10.5587 2.09359 11.1213C2.50276 11.6839 3.05771 12 3.63636 12C4.21502 12 4.76997 11.6839 5.17914 11.1213C5.58831 10.5587 5.81818 9.79565 5.81818 9H10.1818C10.1818 9.79565 10.4117 10.5587 10.8209 11.1213C11.23 11.6839 11.785 12 12.3636 12C12.9423 12 13.4972 11.6839 13.9064 11.1213C14.3156 10.5587 14.5455 9.79565 14.5455 9H16V6C16 4.89 15.3527 4 14.5455 4H13.0909L10.9091 0ZM4 1.5H6.90909V4H2.54545L4 1.5ZM8 1.5H10.5455L11.9709 4H8V1.5ZM3.63636 7.5C3.92569 7.5 4.20317 7.65804 4.40775 7.93934C4.61234 8.22064 4.72727 8.60218 4.72727 9C4.72727 9.39782 4.61234 9.77936 4.40775 10.0607C4.20317 10.342 3.92569 10.5 3.63636 10.5C3.34704 10.5 3.06956 10.342 2.86497 10.0607C2.66039 9.77936 2.54545 9.39782 2.54545 9C2.54545 8.60218 2.66039 8.22064 2.86497 7.93934C3.06956 7.65804 3.34704 7.5 3.63636 7.5ZM12.3636 7.5C12.653 7.5 12.9304 7.65804 13.135 7.93934C13.3396 8.22064 13.4545 8.60218 13.4545 9C13.4545 9.39782 13.3396 9.77936 13.135 10.0607C12.9304 10.342 12.653 10.5 12.3636 10.5C12.0743 10.5 11.7968 10.342 11.5922 10.0607C11.3877 9.77936 11.2727 9.39782 11.2727 9C11.2727 8.60218 11.3877 8.22064 11.5922 7.93934C11.7968 7.65804 12.0743 7.5 12.3636 7.5Z" fill="#38B722"/>
</svg>
