<svg width="18" height="17" viewBox="0 0 18 17" fill="none" xmlns="http://www.w3.org/2000/svg">
<path id="Vector" d="M9 0.5C11.3869 0.5 13.6761 1.25857 15.364 2.60883C17.0518 3.95909 18 5.79044 18 7.7H10V14.1C10 14.7365 9.68393 15.347 9.12132 15.7971C8.55871 16.2471 7.79565 16.5 7 16.5C6.20435 16.5 5.44129 16.2471 4.87868 15.7971C4.31607 15.347 4 14.7365 4 14.1V13.3H6V14.1C6 14.3122 6.10536 14.5157 6.29289 14.6657C6.48043 14.8157 6.73478 14.9 7 14.9C7.26522 14.9 7.51957 14.8157 7.70711 14.6657C7.89464 14.5157 8 14.3122 8 14.1V7.7H0C0 5.79044 0.948211 3.95909 2.63604 2.60883C4.32387 1.25857 6.61305 0.5 9 0.5Z" fill="white"/>
</svg>
