<svg width="16" height="12" viewBox="0 0 16 12" fill="none" xmlns="http://www.w3.org/2000/svg">
<path id="Vector" d="M8 0C8.61884 0 9.21233 0.305172 9.64992 0.848381C10.0875 1.39159 10.3333 2.12834 10.3333 2.89655C10.3333 3.66477 10.0875 4.40151 9.64992 4.94472C9.21233 5.48793 8.61884 5.7931 8 5.7931C7.38116 5.7931 6.78767 5.48793 6.35008 4.94472C5.9125 4.40151 5.66667 3.66477 5.66667 2.89655C5.66667 2.12834 5.9125 1.39159 6.35008 0.848381C6.78767 0.305172 7.38116 0 8 0ZM3.33333 2.06897C3.70667 2.06897 4.05333 2.1931 4.35333 2.41655C4.25333 3.6 4.53333 4.77517 5.10667 5.69379C4.77333 6.48828 4.10667 7.03448 3.33333 7.03448C2.8029 7.03448 2.29419 6.77291 1.91912 6.3073C1.54405 5.84169 1.33333 5.21019 1.33333 4.55172C1.33333 3.89326 1.54405 3.26176 1.91912 2.79615C2.29419 2.33054 2.8029 2.06897 3.33333 2.06897ZM12.6667 2.06897C13.1971 2.06897 13.7058 2.33054 14.0809 2.79615C14.456 3.26176 14.6667 3.89326 14.6667 4.55172C14.6667 5.21019 14.456 5.84169 14.0809 6.3073C13.7058 6.77291 13.1971 7.03448 12.6667 7.03448C11.8933 7.03448 11.2267 6.48828 10.8933 5.69379C11.4667 4.77517 11.7467 3.6 11.6467 2.41655C11.9467 2.1931 12.2933 2.06897 12.6667 2.06897ZM3.66667 10.5517C3.66667 8.83862 5.60667 7.44828 8 7.44828C10.3933 7.44828 12.3333 8.83862 12.3333 10.5517V12H3.66667V10.5517ZM0 12V10.7586C0 9.60828 1.26 8.64 2.96667 8.35862C2.57333 8.92138 2.33333 9.69931 2.33333 10.5517V12H0ZM16 12H13.6667V10.5517C13.6667 9.69931 13.4267 8.92138 13.0333 8.35862C14.74 8.64 16 9.60828 16 10.7586V12Z" fill="#38B722"/>
</svg>
