<svg width="18" height="17" viewBox="0 0 18 17" fill="none" xmlns="http://www.w3.org/2000/svg">
<path id="Vector" d="M9 16.5L12 12.2333C11.1667 11.5667 10.125 11.1667 9 11.1667C7.875 11.1667 6.83333 11.5667 6 12.2333L9 16.5ZM9 0.5C5.625 0.5 2.50833 1.69111 0 3.7L1.5 5.83333C3.58333 4.16222 6.18333 3.16667 9 3.16667C11.8167 3.16667 14.4167 4.16222 16.5 5.83333L18 3.7C15.4917 1.69111 12.375 0.5 9 0.5ZM9 5.83333C6.75 5.83333 4.675 6.62444 3 7.96667L4.5 10.1C5.75 9.09556 7.30833 8.5 9 8.5C10.6917 8.5 12.25 9.09556 13.5 10.1L15 7.96667C13.325 6.62444 11.25 5.83333 9 5.83333Z" fill="white"/>
</svg>
