<svg width="12" height="16" viewBox="0 0 12 16" fill="none" xmlns="http://www.w3.org/2000/svg">
<path id="Vector" d="M6 0C6.79565 0 7.55871 0.337142 8.12132 0.937258C8.68393 1.53737 9 2.35131 9 3.2C9 4.04869 8.68393 4.86263 8.12132 5.46274C7.55871 6.06286 6.79565 6.4 6 6.4C5.20435 6.4 4.44129 6.06286 3.87868 5.46274C3.31607 4.86263 3 4.04869 3 3.2C3 2.35131 3.31607 1.53737 3.87868 0.937258C4.44129 0.337142 5.20435 0 6 0ZM6 8C9.315 8 12 9.432 12 11.2V12.8H0V11.2C0 9.432 2.685 8 6 8ZM2.25 14.4H3.75V16H2.25V14.4ZM5.25 14.4H6.75V16H5.25V14.4ZM8.25 14.4H9.75V16H8.25V14.4Z" fill="#38B722"/>
</svg>
